<svg t="1701846239961" class="icon" viewBox="0 0 1024 1024" version="1.1" xmlns="http://www.w3.org/2000/svg" p-id="4284" width="200" height="200"><path d="M216.514089 716.608707s56.457727 133.698853 15.41668 297.883262h229.005644l62.653518-211.724565-307.075842-86.158697z" fill="#FFC4C4" p-id="4285"></path><path d="M199.285585 533.290953c-41.534445-42.444401-68.00406-92.997524-84.350918-144.897381C96.929667 331.232145 91.215142 272.440886 91.215142 221.026339l100.471298-15.016299c37.360779 73.532549 85.928175 138.438714 152.278137 183.151939l-144.678992 144.128974z" fill="#569F7C" p-id="4286"></path><path d="M762.111694 767.582431l-0.020221 0.004044c14.745335-31.710963 22.566914-71.530646 22.566914-121.420511 0-160.928787-120.906891-291.388197-270.046691-291.388196s-320.745406 130.459409-320.745406 291.388196c0 94.922587 112.729418 165.656515 193.986485 203.915118h-0.004044l0.008088 0.004045a330.374765 330.374765 0 0 0 29.741413 12.258121c41.781144 18.271921 115.301561 54.55693 138.062599 92.496037l32.410618 54.006911 247.30183-22.736772c-49.020352-53.141442-53.064601-134.026438-73.589169-200.416842-2.252647-10.506961-3.643869-16.828123 0.327584-18.110151z" fill="#FFC4C4" p-id="4287"></path><path d="M742.472817 482.693344c0.715832-32.265025 4.8531-66.095174 13.325803-101.781634L285.424061 353.596847s-6.972287 9.48781-17.038424 26.239092c-32.523857 141.253512 112.454409 183.754533 238.093073 206.17181 108.664947 19.396222 189.258757-40.393967 235.994107-103.314405zM101.912183 279.740757s26.679916-2.7784 29.142864-19.913886c0 0 15.165937 14.50268 27.881058 12.597838 12.719166-1.900797 11.817298-13.50375 11.817298-13.50375s32.256936 15.222556 44.029747-11.121686l-5.702392-9.681934-77.382675 7.530393-31.59368 23.218038 1.80778 10.874987z" opacity=".09" p-id="4288"></path><path d="M232.792194 1010.908763s307.249744-31.868688 153.624873-136.392323c0 0 102.537909 22.380878 95.561578 68.861441l-23.189729 72.197947-225.996722-4.667065z" fill="#D1A1A1" p-id="4289"></path><path d="M246.029024 861.866026s34.533849 51.317485 102.190103 44.430128c67.65221-6.891402-30.352095 84.403493-102.125395 104.891663 0 0 194.475839 5.140241 185.71195-92.338311s-184.919277-97.640322-213.115787-196.643557c-0.004044-0.004044 27.965987 70.790548 27.339129 139.660077z" fill="#EDB6B6" p-id="4290"></path><path d="M572.545574 982.97513s-78.59595-127.094594 46.634244-149.475472c125.230194-22.384923 197.157177 127.244231 197.157177 127.244231s-35.387186-74.668984-56.25147-183.507834c-8.06019-42.052109-566.13835-126.726567-566.13835-126.726566s1.916974 123.406238 189.994811 198.338097c154.356881 61.492818 188.603588 134.127544 188.603588 134.127544z" fill="#D1A1A1" p-id="4291"></path><path d="M929.923794 280.800351l-126.475823-16.06376c-15.614848 46.848589-21.40217 53.319389-47.637218 92.993479 0.044487-17.272991-4.788392 18.749142 0 0L285.43215 332.336226s-147.594896 108.859071-115.184278 273.055612c0 0 49.788759 221.851366 571.65875 174.323343 0 0 109.615346-0.101106 88.726796-137.581334-16.759371-127.22401 89.329389-140.351644 99.290376-361.333496z" fill="#569F7C" p-id="4292"></path><path d="M929.923794 280.800351l-126.475823-16.06376c-15.614848 46.848589-21.40217 53.319389-47.637218 92.993479 0.044487-17.272991-4.788392 18.749142 0 0L285.43215 332.336226s-147.594896 108.859071-115.184278 273.055612c0 0 49.788759 221.851366 571.65875 174.323343 0 0 109.615346-0.101106 88.726796-137.581334-16.759371-127.22401 89.329389-140.351644 99.290376-361.333496z" fill="#569F7C" opacity=".14" p-id="4293"></path><path d="M197.356478 654.933898s118.589536 131.187374 292.411392 158.344511c129.415993 20.221249 242.379978-50.553122 281.948917 16.177l-12.864758-51.944345-561.495551-122.577166z" fill="#B88D8D" p-id="4294"></path><path d="M208.494342 418.211825s18.397292 219.145763 202.410657 219.145763 281.07536 6.066375 281.07536-78.86287c0-84.93329 222.894782-149.641286 222.894782-250.747531 0 0-8.549544 82.90712-79.323915 190.07974-70.774371 107.176663-50.553122 250.747531-184.013365 250.74753s-550.818732 2.535745-443.043519-330.362632z" fill="#519674" p-id="4295"></path><path d="M929.923794 280.800351l-17.313433-2.196028c7.506128 86.514591-40.592135 156.799608-107.391009 196.983274-31.8606 36.871425-71.166663 41.874162-65.140731 94.825525l0.080885 0.736053 0.020222 0.21839c19.092903 137.472139-81.083164 137.581333-81.083164 137.581333-402.758747 40.143223-450.278682-111.847772-455.321862-160.083539-0.994885-8.844774-0.420602-14.239803-0.420602-14.239804-7.73665-42.897357-4.23433-82.009297 5.14833-116.401597-29.660528 46.986094-53.258725 111.140028-38.254558 187.175969 0 0 49.788759 221.851366 571.65875 174.323342 0 0 109.615346-0.101106 88.726796-137.581333-16.759371-127.232098 89.329389-140.359733 99.290376-361.341585z" fill="#4C8C6D" p-id="4296"></path><path d="M940.4348 288.047646a192.31621 192.31621 0 0 0-9.184492-20.641851h-14.757467L809.566921 307.969621s18.320452 50.253848 49.546104 7.619366c0 0 13.807069 40.527427 45.922456 4.497206 0 0 5.973357 2.661116 18.069708 3.672179 6.531463-11.352209 14.886883-16.569291 17.329611-35.710726z" opacity=".09" p-id="4297"></path><path d="M749.073033 329.056339c23.307011 148.796038-134.673518 253.74432-255.026347 241.538774-188.741093-19.145478-289.738143-84.985865-262.427324-263.139112C254.117523 160.64569 360.493425 59.652684 494.046686 59.652684c133.545172-0.012133 232.050964 122.678273 255.026347 269.403655z" fill="#4C8C6D" p-id="4298"></path><path d="M749.073033 329.056339c23.307011 148.796038-134.673518 253.74432-255.026347 241.538774-188.741093-19.145478-289.738143-84.985865-262.427324-263.139112C254.117523 160.64569 360.493425 59.652684 494.046686 59.652684c133.545172-0.012133 232.050964 122.678273 255.026347 269.403655z" fill="#4C8C6D" opacity=".34" p-id="4299"></path><path d="M943.294084 266.750627c-5.645773-22.765082-30.586661-42.650658-63.037721-47.843475-39.823728-6.361605-75.825639 11.821342-80.440128 40.628533a33.769486 33.769486 0 0 0-0.420602 5.20495 55.960284 55.960284 0 0 0-1.419532 6.304985c-3.312241 20.75509 5.581065 39.43548 19.873444 41.716437 10.729395 1.714762 27.808261-5.249436 33.898901-18.114195 2.082789 0.347805-2.163674-0.339717 0 0 1.771381 14.114432 9.463544 25.046039 20.168674 26.760801 8.945881 1.431664 17.883673-3.894613 24.132038-13.164033 3.053409 10.75366 9.888191 18.603549 18.821939 20.031169 14.288334 2.280957 28.572625-12.682767 31.901042-33.445946 1.690496-10.515049 0.222434-20.492214-3.478055-28.079226zM297.399085 225.535677c0.94231 42.711322-6.980375 77.249215-26.364465 77.673862-9.645536 0.214345-0.51362-26.433217-19.129301-48.21959-15.999052-18.720832-23.501135-73.896532-23.970269-95.355322-0.938266-42.707278 23.262525-63.34104 29.765679-20.989656 4.66302 30.287387 38.756046 44.183429 39.698356 86.890706z" fill="#FFC4C4" p-id="4300"></path><path d="M751.095158 294.680216c23.307011 148.796038-134.673518 253.74432-255.026347 241.538774-188.741093-19.145478-289.738143-84.985865-262.427324-263.139112C256.143693 126.261478 362.519595 25.268473 496.068811 25.268473c133.545172-0.004044 232.050964 122.686361 255.026347 269.411743z" fill="#E8B3B3" p-id="4301"></path><path d="M751.095158 294.680216c23.307011 148.796038-134.673518 253.74432-255.026347 241.538774-188.741093-19.145478-289.738143-84.985865-262.427324-263.139112C256.143693 126.261478 362.519595 25.268473 496.068811 25.268473c133.545172-0.004044 232.050964 122.686361 255.026347 269.411743z" fill="#E8B3B3" opacity=".34" p-id="4302"></path><path d="M696.744485 266.73445c20.035213 131.498782-115.774738 224.249606-219.242825 213.463592-162.259345-16.92923-249.0813-75.105763-225.60443-232.556495C271.240877 117.893925 362.693497 28.637333 477.50166 28.637333s199.490709 108.430381 219.242825 238.097117z" fill="#F0B8B8" p-id="4303"></path><path d="M696.744485 243.035146c20.035213 131.502826-150.021446 259.51142-253.489532 248.721362-162.259345-16.925185-214.838637-86.672317-191.357723-244.119005C271.240877 117.893925 362.693497 28.637333 477.50166 28.637333s199.490709 84.735121 219.242825 214.397813z" fill="#F0B8B8" opacity=".34" p-id="4304"></path><path d="M651.537861 194.504149c16.156778 125.371743-108.717523 209.002784-192.15444 200.295515-130.847657-13.649343-200.865754-60.566685-181.930576-187.539951 15.598671-104.624742 89.345566-176.600255 181.930576-176.600255 92.580966 0 177.999566 59.284658 192.15444 163.844691z" fill="#FFC4C4" p-id="4305"></path><path d="M636.185889 194.504149c16.156778 106.048318-117.550164 233.187398-200.987082 224.488217-130.847657-13.649343-195.854928-76.003586-176.91975-202.976853C273.873684 111.386727 382.97541 30.659458 475.56042 30.659458c92.580966 0 144.695169 59.284658 160.625469 163.844691z" fill="#FFC4C4" opacity=".34" p-id="4306"></path><path d="M318.190573 152.840288c-0.420602 44.519102 22.150356 45.247067 62.98919 47.519935 40.838834 2.276913 70.681353 4.327347 71.126221-40.191755 0.420602-44.535279-22.328303-84.512688-63.138828-86.7896-40.850967-2.260736-70.539805 34.930185-70.976583 79.46142zM486.01885 163.452399c-0.432735 44.769845 22.134179 45.489722 62.964925 47.770679 40.842879 2.272868 70.685398 4.323303 71.146442-40.450587 0.436779-44.786022-22.291905-84.993953-63.106473-87.258733-40.846923-2.256691-70.551937 35.156663-71.004894 79.938641z" fill="#5A3D1C" opacity=".12" p-id="4307"></path><path d="M337.117662 114.508888c-13.467352 12.731298-20.872373 30.307608-20.852152 49.461175 0.068752 38.561922 24.099684 39.936967 63.927456 42.213879l1.435709 0.08493c31.585591 1.803735 50.593565-2.04639 61.646499-12.492688 7.502083-7.093614 11.149997-17.018203 11.137864-30.335918-0.072796-38.966347-25.337225-64.610934-65.945537-66.932334-19.659098-1.112169-37.898665 5.277746-51.349839 18.000956zM504.929762 125.371743c-13.463308 12.735343-20.868329 30.307608-20.844063 49.465219 0.064708 38.561922 24.099684 39.936967 63.935544 42.213879l1.431665 0.08493c34.469141 1.96955 57.480922-2.968479 70.341636-15.125494 7.514216-7.109791 11.331988-16.694663 11.319855-28.49174-0.064708-36.430602-30.821228-63.620093-74.814576-66.139661-19.679319-1.124301-37.918886 5.269657-51.370061 17.992867z" fill="#FFFFFF" p-id="4308"></path><path d="M392.277184 17.463071c3.922922 13.030573-2.256691 11.995245-25.183543 18.886646-22.926852 6.895446-53.921982 19.100992-57.836816 6.074463S333.951014 9.285597 356.877866 2.390152c22.934941-6.891402 31.484485 2.050435 35.399318 15.072919zM552.991626 20.358753c-3.623648 13.107414 2.527656 11.934581 25.60819 18.292142 23.076489 6.357561 54.346629 17.851319 57.962188 4.735817 3.607471-13.111458-25.466641-32.564299-48.535042-38.92186-23.080533-6.361605-31.423821 2.782444-35.035336 15.893901z" fill="#424242" p-id="4309"></path><path d="M690.285818 215.590867s30.388493 41.077445 54.128239 46.254085c0 0-7.623411-34.376123-14.138697-49.760449l-39.989542 3.506364z" fill="#DBA9A9" p-id="4310"></path><path d="M751.301414 178.529362c0 27.84466-22.425365 50.415618-37.959328 50.415618-15.525875 0-45.182359-28.40681-28.119669-50.415618 21.59225-27.848704 9.4595-72.141328 41.08149-72.141327 15.533963-0.004044 24.997508 44.292624 24.997507 72.141327z" fill="#E8B3B3" p-id="4311"></path><path d="M547.455049 433.636594c-7.166411 47.079112-50.743202 42.124906-117.683625 31.258007-66.948511-10.866899-131.159065-33.482344-122.69445-89.050336 12.42798-81.701934 74.733692-120.692546 141.682203-109.825647 66.944467 10.874988 111.123851 85.920087 98.695872 167.617976z" fill="#FFC4C4" p-id="4312"></path><path d="M544.559366 416.78825c-6.976331 44.333066-49.335803 39.670046-114.423959 29.434049-65.096244-10.227908-127.523284-31.528971-119.29728-83.84943C322.926389 285.435061 383.505207 248.721361 448.597407 258.953313c65.0922 10.235996 108.054266 80.901173 95.961959 157.834937z" fill="#801F1F" p-id="4313"></path><path d="M319.573706 390.468272l36.325452-27.767819c8.836686-6.753897 15.946477-3.182825 15.808972 7.938862l-0.521708 41.732614c-0.137504 11.121687-8.958013 17.572265-19.598435 14.324733 0.004044 0-42.88118-13.066971-32.014281-36.22839zM478.067855 451.039001l15.736176-57.755931c2.928037-10.729395 10.891165-12.322829 17.705725-3.53063l24.876181 32.087078c6.818605 8.788155 4.683241 16.779592-4.723684 22.704418 0-0.004044-17.689549 12.783874-53.594398 6.495065z" fill="#FFFFFF" p-id="4314"></path><path d="M447.246627 258.953313c-65.0922-10.231952-125.671018 26.481748-137.755236 103.419556-1.375045 8.759845-0.736053 16.625911 1.528727 23.747834 20.718692-58.05925 68.044503-71.118132 124.821725-62.200561 54.201036 8.525279 99.043677 45.222801 103.544927 106.274796 1.730939-3.874391 3.01701-8.302845 3.821816-13.406688 12.096351-76.933764-30.869759-147.59894-95.961959-157.834937z" fill="#690909" p-id="4315"></path><path d="M218.685851 722.201904s40.48294 99.258022 140.133255 140.133255c99.650315 40.871188 123.155494 81.042721 123.155494 81.042722l12.37136-41.801366c0 0.004044-227.209997-105.465946-275.660109-179.374611zM579.550215 1008.842152s-7.68003-45.372438 134.673517-45.372438c156.702546 0 124.8743 45.372438 124.874301 45.372438s-12.2379 15.117406-110.177497 15.117406c-152.735137 0.004044-149.370321-15.117406-149.370321-15.117406z" fill="#D1A1A1" p-id="4316"></path><path d="M638.402138 983.19352c0.270965 10.955873-11.513979 20.451771-30.562396 24.900446-19.052461 4.464852-35.176885 5.180684-38.440594-8.755801-3.26371-13.940529 9.544429-28.863811 28.592846-33.312486 19.056505-4.456763 40.050206 2.85524 40.410144 17.167841z" fill="#FFD9D9" p-id="4317"></path><path d="M732.475432 970.535018c1.755204 9.277509-20.427506 11.149997-51.479256 16.597601-28.010474 4.913763-51.479255 14.842397-51.479255-3.352683s23.048179-40.935896 51.479255-40.935896 48.110395 9.807306 51.479256 27.690978z" fill="#FFD9D9" p-id="4318"></path><path d="M841.54076 997.227066c-2.038302 14.243848-26.841686-2.523612-59.470693-7.182587-32.653273-4.654931-58.297861-8.161296-56.263603-22.405144s30.153926-22.016896 62.803155-17.353876c32.64114 4.650887 54.965399 32.701804 52.931141 46.941607z" fill="#FFD9D9" p-id="4319"></path><path d="M569.564962 977.737827s25.381712-174.820785 246.78821-16.965628c0 0-81.010367-162.421115-212.901441-123.612495s-33.886769 140.578122-33.886769 140.578123z" fill="#EDB6B6" p-id="4320"></path><path d="M225.884616 1008.825975s-7.332225-45.368394 128.40493-45.368394c149.414808 0 119.066758 45.368394 119.066758 45.368394s-11.679793 15.12145-105.061521 15.12145c-145.621302 0.004044-142.410167-15.12145-142.410167-15.12145z" fill="#D1A1A1" p-id="4321"></path><path d="M281.994537 983.177343c0.262876 10.955873-10.97205 20.451771-29.134775 24.900446-18.16677 4.460808-33.534919 5.180684-36.648992-8.755801-3.118117-13.940529 9.099562-28.863811 27.262288-33.312486 18.16677-4.452719 38.181762 2.85524 38.521479 17.167841z" fill="#FFD9D9" p-id="4322"></path><path d="M371.695997 970.518841c1.666231 9.281553-19.473063 11.149997-49.097192 16.597601-26.708226 4.913763-49.093148 14.842397-49.093148-3.352683s21.984542-40.935896 49.093148-40.935896c27.116695-0.004044 45.886058 9.803261 49.097192 27.690978z" fill="#FFD9D9" p-id="4323"></path><path d="M475.685792 997.210889c-1.937196 14.243848-25.583924-2.523612-56.704426-7.182587-31.132635-4.654931-55.580125-8.16534-53.642929-22.409188 1.937196-14.239803 28.746527-22.012852 59.88725-17.353876 31.112414 4.654931 52.401344 32.705848 50.460105 46.945651z" fill="#FFD9D9" p-id="4324"></path><path d="M129.829639 186.415649S89.108088 342.28508 208.494342 418.207781l-35.775434 82.288351S92.662984 404.17019 92.662984 264.963069l37.166655-78.54742z" fill="#4C8C6D" p-id="4325"></path><path d="M199.702143 196.485831c-10.834545-17.673372-37.158567-27.763775-65.868696-23.47687C98.591854 178.282663 73.109036 203.219507 76.922764 228.706369c0.246699 1.629833 0.594505 3.122161 1.035328 4.50125 0.060664 1.864399 0.202212 3.761152 0.493398 5.678127 2.746046 18.368982 15.2266 31.731184 27.889147 29.834431 9.491854-1.423576 22.012852-11.849652 23.707392-24.309986 1.840134-0.258832-1.916974 0.287142 0 0 5.261569 11.412873 14.656361 18.575239 24.148215 17.151664 7.910553-1.184965 14.021414-8.052101 16.807902-17.527779 5.44356 8.246225 13.285361 13.034617 21.199958 11.849652 12.654458-1.892709 20.678249-18.308319 17.944336-36.681346-1.403355-9.301774-5.297967-17.313433-10.446297-22.716551z" fill="#FFC4C4" p-id="4326"></path><path d="M851.748446 266.338113v0.008089c0.521708 0.080885 1.019151 0.16177 0-0.008089z m-0.004044 28.317837c0.004044 0 0.004044 0 0 0l0.004044-0.008088-0.004044 0.008088z m93.729533-22.271683c-4.820746 17.624841-17.697637 29.648395-30.59475 27.581783-8.933748-1.431664-15.76853-9.277509-18.821938-20.031169-6.248366 9.26942-15.186158 14.591653-24.132039 13.164033-10.701085-1.714762-18.397292-12.642325-20.168673-26.752712h-0.004045c-6.094684 12.864759-23.165463 19.816824-33.894857 18.110151-8.715358-1.395266-15.412636-8.901394-18.563106-19.242541-0.517664 1.888665-0.986797 3.817772-1.310337 5.831808-3.312241 20.75509 5.581065 39.43548 19.873443 41.716437 10.729395 1.714762 27.800173-5.245392 33.894857-18.110151-0.541929-0.084929-1.095992-0.181991 0.004045-0.008088 1.019151 0.169858 0.521708 0.084929 0 0.008088 1.771381 14.110387 9.467589 25.03795 20.168673 26.752713 8.945881 1.431664 17.883673-3.894613 24.132039-13.164034 3.053409 10.75366 9.888191 18.603549 18.821938 20.03117 14.292379 2.280957 28.572625-12.682767 31.901043-33.445946 1.290116-8.076367 0.707744-15.833238-1.306293-22.441542z m-93.729533-6.038065l0.004044-0.008089c-1.100036-0.173903-0.541929-0.080885-0.004044 0.008089zM130.043985 215.396743v-0.008088c-0.974664 0.153681-0.477221 0.084929 0 0.008088z m0 0l0.004044 0.012133c0.461044-0.076841 0.893779-0.141549-0.004044-0.012133z m0 29.033669v-0.008088 0.008088z m80.096366-25.219941a49.54206 49.54206 0 0 0-1.844178-7.752827c-3.037232 8.359464-8.788155 14.316644-16.092069 15.412636-7.914597 1.184965-15.756397-3.603427-21.199958-11.849652-2.786488 9.471633-8.89735 16.342813-16.807902 17.527779-9.48781 1.423576-18.882602-5.734746-24.144171-17.147619h-0.004044c-1.698585 12.456289-14.223626 22.882365-23.707392 24.305941-12.274298 1.840134-24.354472-10.692996-27.581784-28.204598-1.973594 5.560843-2.701559 11.368386-1.832045 17.212327 0.246699 1.629833 0.594505 3.122161 1.035328 4.50125 0.060664 1.864399 0.202212 3.765197 0.493398 5.678126 2.746046 18.368982 15.2266 31.731184 27.889147 29.834431 9.48781-1.419532 22.008807-11.845608 23.707392-24.301897-0.477221 0.072796-0.974664 0.141549 0-0.008088 0.901868-0.125372 0.461044-0.064708 0.004044 0.008088 5.261569 11.408829 14.656361 18.567151 24.144171 17.143575 7.910553-1.184965 14.021414-8.052101 16.807903-17.527779 5.44356 8.246225 13.285361 13.034617 21.199957 11.849652 12.646369-1.888665 20.674205-18.308319 17.932203-36.681345z" fill="#EBB4B4" p-id="4327"></path><path d="M542.343117 152.710872m-18.874514 0a18.874514 18.874514 0 1 0 37.749028 0 18.874514 18.874514 0 1 0-37.749028 0Z" p-id="4328"></path><path d="M371.137891 150.021446m-18.874514 0a18.874514 18.874514 0 1 0 37.749028 0 18.874514 18.874514 0 1 0-37.749028 0Z" p-id="4329"></path></svg>