<svg t="1702020208506" class="icon" viewBox="0 0 1024 1024" version="1.1" xmlns="http://www.w3.org/2000/svg" p-id="15124" width="200" height="200"><path d="M 1003.99 512 c 0 271.716 -220.268 491.986 -491.986 491.986 S 20.014 783.716 20.014 512 S 240.284 20.014 512 20.014 c 65.424 0 127.868 12.77 184.97 35.954 C 877.02 129.07 1003.99 305.71 1003.99 512 Z" fill="#fddf6d" p-id="15125"></path><path d="M 617.43 931.356 c -271.716 0 -491.986 -220.268 -491.986 -491.986 c 0 -145.168 62.886 -275.632 162.888 -365.684 C 129.054 155.124 20.014 320.828 20.014 512 c 0 271.716 220.268 491.986 491.986 491.986 c 126.548 0 241.924 -47.796 329.098 -126.298 c -67.106 34.31 -143.124 53.668 -223.668 53.668 Z" fill="#fcc56b" p-id="15126"></path><path d="M 492.588 379.724 c -11.054 0 -20.014 -8.962 -20.014 -20.014 c 0 -25.816 -21.002 -46.818 -46.818 -46.818 s -46.818 21.004 -46.818 46.818 c 0 11.054 -8.962 20.014 -20.014 20.014 c -11.054 0 -20.014 -8.962 -20.014 -20.014 c 0 -47.888 38.962 -86.848 86.848 -86.848 s 86.848 38.96 86.848 86.848 c -0.002 11.052 -8.964 20.014 -20.018 20.014 Z M 830.634 379.724 c -11.054 0 -20.014 -8.962 -20.014 -20.014 c 0 -25.816 -21.002 -46.818 -46.818 -46.818 s -46.818 21.004 -46.818 46.818 c 0 11.054 -8.962 20.014 -20.014 20.014 s -20.014 -8.962 -20.014 -20.014 c 0 -47.888 38.962 -86.848 86.848 -86.848 c 47.886 0 86.848 38.96 86.848 86.848 c -0.004 11.052 -8.964 20.014 -20.018 20.014 Z" fill="#7f184c" p-id="15127"></path><path d="M 583.584 871.534 c -142.222 0 -257.514 -115.292 -257.514 -257.514 h 515.028 c 0 142.22 -115.294 257.514 -257.514 257.514 Z" fill="#ffffff" p-id="15128"></path><path d="M 300.576 481.542 c -36.536 0 -66.156 29.62 -66.156 66.156 h 132.314 c -0.004 -36.536 -29.622 -66.156 -66.158 -66.156 Z M 877.628 481.542 c -36.536 0 -66.158 29.62 -66.158 66.156 h 132.314 c 0.002 -36.536 -29.616 -66.156 -66.156 -66.156 Z" fill="#f9a880" p-id="15129"></path><path d="M 351.386 725.498 a 257.446 257.446 0 0 0 23.97 40.03 h 416.456 a 257.352 257.352 0 0 0 23.97 -40.03 H 351.386 Z" fill="#e6e6e6" p-id="15130"></path><path d="M 935.748 224.546 c -56.342 -82.904 -134.876 -147.02 -227.102 -185.414 c -10.196 -4.248 -21.92 0.58 -26.168 10.784 s 0.58 21.922 10.784 26.172 c 176.598 73.52 290.706 244.628 290.706 435.914 c 0 260.248 -211.724 471.97 -471.97 471.97 S 40.03 772.244 40.03 512 S 251.752 40.03 512 40.03 c 11.054 0 20.014 -8.962 20.014 -20.014 S 523.054 0 512 0 C 229.68 0 0 229.68 0 512 s 229.68 512 512 512 s 512 -229.68 512 -512 c 0 -103.106 -30.516 -202.504 -88.252 -287.454 Z" fill="" p-id="15131"></path><path d="M 378.936 359.71 c 0 -25.816 21.004 -46.818 46.818 -46.818 s 46.818 21.002 46.818 46.818 c 0 11.054 8.962 20.014 20.014 20.014 c 11.054 0 20.014 -8.962 20.014 -20.014 c 0 -47.888 -38.96 -86.848 -86.848 -86.848 s -86.848 38.96 -86.848 86.848 c 0 11.054 8.962 20.014 20.014 20.014 c 11.058 0 20.018 -8.958 20.018 -20.014 Z M 763.8 272.864 c -47.888 0 -86.848 38.96 -86.848 86.848 c 0 11.054 8.962 20.014 20.014 20.014 s 20.014 -8.962 20.014 -20.014 c 0 -25.816 21.004 -46.818 46.818 -46.818 c 25.814 0 46.818 21.002 46.818 46.818 c 0 11.054 8.962 20.014 20.014 20.014 s 20.014 -8.962 20.014 -20.014 c 0.004 -47.888 -38.954 -86.848 -86.844 -86.848 Z M 306.054 614.018 c 0 153.03 124.5 277.53 277.53 277.53 s 277.53 -124.5 277.53 -277.53 c 0 -11.054 -8.962 -20.014 -20.014 -20.014 H 326.068 c -11.052 0 -20.014 8.962 -20.014 20.014 Z m 514.194 20.016 c -10.194 121.63 -112.446 217.486 -236.664 217.486 S 357.114 755.666 346.92 634.034 h 473.328 Z" fill="" p-id="15132"></path><path d="M 631.29 35.012 m -20.014 0 a 20.014 20.014 0 1 0 40.028 0 a 20.014 20.014 0 1 0 -40.028 0 Z" fill="" p-id="15133"></path></svg>